# xmcd
#
# Track frame offsets: 
#        150
#        15522
#        34242
#        48770
#        63272
#        75832
#        90205
#        105260
#        123726
#        136745
#        151585
#        175949
#        185260
#        205215
#        228513
#        245951
#        264236
#        281590
#        298088
#
# Disc length: 4192 seconds
#
# Revision: 0
# Processed by: cddbd v1.5.2PL0 Copyright (c) Steve Scherf et al.
# Submitted via: ExactAudioCopy v0.95a5
#
DISCID=f0105e13
DTITLE=Various Artist - Alberta - Wild Roses Northen Lights
DYEAR=2006
DGENRE=Country
TTITLE0=Corb Lund Band - No Roads Here
TTITLE1=John Wort Hannam - Church of the Long Grass
TTITLE2=Ian Tyson - Land of the Shining Mountains
TTITLE3=k.d. lang - Big-Boned Gal (Remix)
TTITLE4=Asani - Oti Nikan
TTITLE5=Calvin Vollrath - Wild Alberta Rose
TTITLE6=Tom Wilson - The Harvest Dance
TTITLE7=Tim Hus - Alberta Crude
TTITLE8=Tim Tamashiro - I Turn into a Cowboy
TTITLE9=Swiftys - Sweet Rose
TTITLE10=Laura Vinson and Free Spirit - Half-Breed
TTITLE11=Kubasonics - Polka from L'viv
TTITLE12=Lé Twés - Allez Ouest
TTITLE13=Terry Morrison - Long Dust Road
TTITLE14=Diamond Joe White - High Rider (The John Ware Story)
TTITLE15=Maria Dunn - Do You Know Slim Evans?
TTITLE16=David Wilkie and Cowboy Celtic - Wind in the Wire
TTITLE17=McDades - Jonny's Flush \\ The Boiling Hen
TTITLE18=Ian Tyson - Four Strong Winds
EXTD=
EXTT0=
EXTT1=
EXTT2=
EXTT3=
EXTT4=
EXTT5=
EXTT6=
EXTT7=
EXTT8=
EXTT9=
EXTT10=
EXTT11=
EXTT12=
EXTT13=
EXTT14=
EXTT15=
EXTT16=
EXTT17=
EXTT18=
PLAYORDER=
